<?xml version="1.0" encoding="UTF-8" standalone="no"?>
<!-- Created with Inkscape (http://www.inkscape.org/) -->

<svg
   width="456"
   height="456"
   viewBox="0 0 456 456"
   version="1.1"
   id="svg1"
   xml:space="preserve"
   inkscape:version="1.3 (0e150ed6c4, 2023-07-21)"
   sodipodi:docname="appiconfg.svg"
   xmlns:inkscape="http://www.inkscape.org/namespaces/inkscape"
   xmlns:sodipodi="http://sodipodi.sourceforge.net/DTD/sodipodi-0.dtd"
   xmlns="http://www.w3.org/2000/svg"
   xmlns:svg="http://www.w3.org/2000/svg"><sodipodi:namedview
     id="namedview1"
     pagecolor="#4f4f4f"
     bordercolor="#ffffff"
     borderopacity="1"
     inkscape:showpageshadow="false"
     inkscape:pageopacity="0"
     inkscape:pagecheckerboard="true"
     inkscape:deskcolor="#505050"
     inkscape:document-units="px"
     inkscape:zoom="2"
     inkscape:cx="220.75"
     inkscape:cy="220.75"
     inkscape:window-width="2560"
     inkscape:window-height="1377"
     inkscape:window-x="1912"
     inkscape:window-y="-8"
     inkscape:window-maximized="1"
     inkscape:current-layer="layer1" /><defs
     id="defs1"><filter
       style="color-interpolation-filters:sRGB;"
       inkscape:label="Drop Shadow"
       id="filter17"
       x="-0.12240461"
       y="-0.052379924"
       width="1.1946434"
       height="1.1290098"><feFlood
         result="flood"
         in="SourceGraphic"
         flood-opacity="0.79999999999999993"
         flood-color="rgb(0,0,0)"
         id="feFlood16" /><feGaussianBlur
         result="blur"
         in="SourceGraphic"
         stdDeviation="9"
         id="feGaussianBlur16" /><feOffset
         result="offset"
         in="blur"
         dx="-15"
         dy="10"
         id="feOffset16" /><feComposite
         result="comp1"
         operator="in"
         in="flood"
         in2="offset"
         id="feComposite16" /><feComposite
         result="comp2"
         operator="over"
         in="SourceGraphic"
         in2="comp1"
         id="feComposite17" /></filter></defs><g
     inkscape:label="Layer 1"
     inkscape:groupmode="layer"
     id="layer1"><path
       style="display:inline;fill:#ef8627;filter:url(#filter17)"
       d="m 208.29567,425.99186 -118.051744,-0.0222 -0.621963,-3.10982 C 89.279883,421.14942 89,339.66126 89,241.77501 V 63.800024 L 107.25,45.175317 C 117.2875,34.931729 128.04359,25.369407 129.01481,24.380302 130.7888,22.628565 141.8831,14 141.8831,14 h 112.12106 c 122.47865,0 130.43087,0.20811 132.56768,3.469301 1.20279,1.83569 1.41599,28.255812 1.4365,178.016009 l -0.18271,176.16109 c -0.20681,0.30071 -56.7755,54.86064 -59.01594,54.72508 -2.24044,-0.13556 -55.58556,-0.3674 -120.51402,-0.37962 z M 304.5,354.16183 c 3.85,0.0899 9.63093,0.20275 12.84652,0.2508 l 5.84652,0.0874 -0.005,-23.82549 c -0.003,-13.10402 -0.23916,-24.0593 -0.52493,-24.34507 -0.28577,-0.28577 -27.8893,-0.5893 -61.34117,-0.67451 L 200.5,305.5 l -0.31303,-4.36317 c -1.61867,-22.56206 21.84816,-48.87074 55.47462,-62.19264 9.82228,-3.89132 13.12893,-5.50961 21.95722,-9.25395 5.73068,-2.43055 4.1976,-1.948 10.46357,-4.65849 35.34203,-15.78004 48.49901,-72.67699 23.06136,-109.76195 -16.68182,-24.320036 -63.5372,-42.298634 -64.02686,-23.368492 -0.0793,3.064408 -0.32176,6.090698 -0.34081,6.640698 -0.0191,0.55 -0.27068,5.793034 -0.41415,11.718404 -0.30669,12.66626 -0.79737,12.26607 8.06748,16.63022 35.65468,17.55274 29.88294,66.71306 -9.22927,78.60946 -23.60907,7.18095 -33.50947,12.014 -50.48872,23.29064 -19.23663,15.79143 -34.02915,35.18026 -39.91705,55.98108 -2.96171,10.46318 -3.4863,63.9618 -0.65497,66.79505 3.01123,3.01326 8.01332,3.19882 75.86061,2.8142 37.125,-0.21046 70.65,-0.30911 74.5,-0.21923 z M 195,169.15852 c 0,-16.93778 11.72535,-35.53364 27.19601,-43.13163 l 7.18119,-3.52684 0.34016,-15.39202 c 0.18708,-8.465612 0.75844,-15.6857 0.84199,-16.204012 2.23662,-13.87466 -30.32776,-0.04353 -44.76351,12.020272 -14.43574,12.0638 -27.4867,31.56308 -30.70708,44.20084 -6.33893,24.8759 -0.65196,31.02655 18.07142,29.22063 C 191.88356,174.53985 195,175.97159 195,169.15852 Z"
       id="path3"
       sodipodi:nodetypes="scsscsccsssccsssccsscssscsssssscsssssscsscscs" /></g></svg>
