<?xml version="1.0" encoding="UTF-8"?>
<!-- Created with Inkscape (http://www.inkscape.org/) -->
<svg width="512" height="512" version="1.1" viewBox="0 0 512 512" xmlns="http://www.w3.org/2000/svg">
 <g>
  <path d="m383.28 383.28a180 180 0 0 1-5.709 4.877 180 180 0 0 1-10.203 8.7129 180 180 0 0 1-11.607 8.4551 180 180 0 0 1-5.959 3.9844l10.432 17.068a200 200 0 0 0 9.7109-6.4785 200 200 0 0 0 10.438-7.8145 200 200 0 0 0 12.27-10.611 200 200 0 0 0 4.4121-4.4102l-13.783-13.783zm-230.81 19.619-12.914 14.758a200 200 0 0 0 45.182 24.676 200 200 0 0 0 3.0469 1.1367 200 200 0 0 0 80.084 11.684 200 200 0 0 0 4.6953-0.33593 200 200 0 0 0 18.607-2.3106 200 200 0 0 0 1.2598-0.27344 200 200 0 0 0 35.98-10.324 200 200 0 0 0 4.748-1.7715 200 200 0 0 0 14.584-6.9375 200 200 0 0 0 3.7383-2.041l-9.4531-17.359a180 180 0 0 1-0.40235 0.1914 180 180 0 0 1-12.959 6.1406 180 180 0 0 1-7.6582 3.1738 180 180 0 0 1-50.674 11.566 180 180 0 0 1-2.6387 0.20899 180 180 0 0 1-11.691 0.91992 180 180 0 0 1-103.54-33.102z" fill="#b2b2b2"/>
  <path d="m256 56a200 200 0 0 0-200 200 200 200 0 0 0 58.938 141.06l13.783-13.783a180 180 0 0 1-52.721-127.28 180 180 0 0 1 180-180 180 180 0 0 1 180 180 180 180 0 0 1-52.721 127.28l13.783 13.783a200 200 0 0 0 58.938-141.06 200 200 0 0 0-200-200z" fill="#b2b2b2"/>
  <path d="m256 104a152 152 0 0 0-152 152 152 152 0 0 0 152 152 152 152 0 0 0 152-152 152 152 0 0 0-152-152zm0 2a150 150 0 0 1 150 150 150 150 0 0 1-150 150 150 150 0 0 1-150-150 150 150 0 0 1 150-150z" fill="#fff"/>
  <path d="m256 86a170 170 0 0 0-24.91 1.8867 170 170 0 0 0-0.0039 0 170 170 0 0 0-0.06055 0.013672 170 170 0 0 0-0.00391 0.001953 170 170 0 0 0-131.78 103.16 170 170 0 0 0-0.003907 0.00781l17.684 7.3262a151 151 0 0 1 139.08-93.395 151 151 0 0 1 139.46 93.234l17.6-7.291a170 170 0 0 0-42.895-60.904 170 170 0 0 0-19.717-15.389 170 170 0 0 0-21.764-12.328 170 170 0 0 0-23.336-9.002 170 170 0 0 0-24.404-5.4805 170 170 0 0 0-24.943-1.8398zm-139.08 227.61-17.684 7.3262a170 170 0 0 0 0.003907 0.00781 170 170 0 0 0 131.78 103.16 170 170 0 0 0 0.00391 0.00195 170 170 0 0 0 0.06055 0.01367 170 170 0 0 0 0.0039 0 170 170 0 0 0 24.91 1.8867 170 170 0 0 0 24.91-1.8867 170 170 0 0 0 0.06836-0.01562 170 170 0 0 0 131.78-103.16 170 170 0 0 0 0.00391-0.00781l-17.684-7.3262a151 151 0 0 1-139.08 93.395 151 151 0 0 1-139.08-93.395z" fill="#fff"/>
 </g>
 <circle cx="256" cy="256" r="150" fill-opacity=".49821"/>
 <g fill="#fff">
  <path transform="matrix(.71961 0 0 .71961 28.098 19.603)" d="m233.09 256.94h40.115l20.058 34.741-20.058 34.741h-40.115l-20.058-34.741z"/>
  <path transform="matrix(.71961 0 0 .71961 28.098 72.603)" d="m233.09 256.94h40.115l20.058 34.741-20.058 34.741h-40.115l-20.058-34.741z"/>
  <path transform="matrix(.71961 0 0 .71961 73.835 99.103)" d="m233.09 256.94h40.115l20.058 34.741-20.058 34.741h-40.115l-20.058-34.741z"/>
  <path transform="matrix(.71961 0 0 .71961 119.57 72.603)" d="m233.09 256.94h40.115l20.058 34.741-20.058 34.741h-40.115l-20.058-34.741z"/>
 </g>
 <path transform="matrix(.71961 0 0 .71961 119.57 19.603)" d="m233.09 256.94h40.115l20.058 34.741-20.058 34.741h-40.115l-20.058-34.741z" fill="#fd7e14"/>
 <path transform="matrix(.71961 0 0 .71961 73.835 -6.8972)" d="m233.09 256.94h40.115l20.058 34.741-20.058 34.741h-40.115l-20.058-34.741z" fill="#fd7e14"/>
</svg>
